<svg xmlns="http://www.w3.org/2000/svg" width="487" height="78" fill="none" viewBox="0 0 487 78"><rect width="16.203" height="60" y="9" fill="#D9D9D9"/><rect width="14" height="47.595" x="16.203" y="45.781" fill="#D9D9D9" transform="rotate(-90 16.2025 45.7814)"/><rect width="16.203" height="60" x="63.797" y="9" fill="#D9D9D9"/><path fill="#D9D9D9" d="M132.033 15H148.912L109.879 63H93L132.033 15Z"/><path fill="#D9D9D9" d="M149.967 15H133.088L172.121 63H189L149.967 15Z"/><path fill="#D9D9D9" d="M295 12.9226L276.84 12.9226L208.5 78H232.62L295 12.9226Z"/><path fill="#D9D9D9" d="M308.5 0H214.5L202 13.0774H295L308.5 0Z"/><path fill="#D9D9D9" d="M321.5 31.5976V45.2308L387.12 25.6331L393.5 12L321.5 31.5976Z"/><path fill="#D9D9D9" d="M321.5 45.7899V31.7308L387.12 51.9408L393.5 66L321.5 45.7899Z"/><rect width="16.203" height="60" x="406.5" y="9" fill="#D9D9D9"/><rect width="14" height="47.595" x="422.702" y="45.781" fill="#D9D9D9" transform="rotate(-90 422.702 45.7814)"/><rect width="16.203" height="60" x="470.297" y="9" fill="#D9D9D9"/></svg>